<?xml version="1.0" standalone="no"?><svg xmlns="http://www.w3.org/2000/svg" viewBox="0 0 1440 320"><path fill="#ffeb7aaa" fill-opacity="0.9" d="M0,224L21.8,229.3C43.6,235,87,245,131,256C174.5,267,218,277,262,277.3C305.5,277,349,267,393,234.7C436.4,203,480,149,524,154.7C567.3,160,611,224,655,213.3C698.2,203,742,117,785,80C829.1,43,873,53,916,85.3C960,117,1004,171,1047,165.3C1090.9,160,1135,96,1178,90.7C1221.8,85,1265,139,1309,154.7C1352.7,171,1396,149,1418,138.7L1440,128L1440,0L1418.2,0C1396.4,0,1353,0,1309,0C1265.5,0,1222,0,1178,0C1134.5,0,1091,0,1047,0C1003.6,0,960,0,916,0C872.7,0,829,0,785,0C741.8,0,698,0,655,0C610.9,0,567,0,524,0C480,0,436,0,393,0C349.1,0,305,0,262,0C218.2,0,175,0,131,0C87.3,0,44,0,22,0L0,0Z"></path></svg>